<?xml version="1.0" encoding="utf-8"?>
<svg version="1.1" xmlns="http://www.w3.org/2000/svg" xmlns:xlink="http://www.w3.org/1999/xlink"
  viewBox="0 0 4000 4000" style="enable-background:new 0 0 4000 4000;" xml:space="preserve">
  <g>
    <g opacity="0.2">
      <ellipse fill="black" cx="2089.938" cy="3450.274" rx="1104.235" ry="192.981"/>
    </g>
    <g>
      <g>
        <path fill="white" d="M3128.768,3368.162c-52.05,2.749-193.45,3.4-315.6,2.999c-109.95-0.35-204.45-1.6-204.45-2.999
          c0.5-1.65-46.85-19.2-89.7-38.301c-36.2-16.1-69.2-33.25-67.6-42.8c3.5-20.8-16.6-61.749,10.9-77.349
          c27.55-15.601,72.9-35.701,72.9-35.701l24.2-17.45l16-11.55c0,0,48.2,30.551,149.05,57.45c44.2,11.75,98.5,22.85,163.35,30.3
          c212.7,24.551,364.45-8.9,380.8,38.7C3284.968,3319.062,3227.717,3362.912,3128.768,3368.162z"/>
      </g>
      <g opacity="0.25">
        <path fill="black" d="M2798.537,3366.215c-109.95-0.35-204.45-1.6-204.45-2.999c0.5-1.65-46.85-19.2-89.7-38.301
          c-3.15-32.7,0.85-65.9,11.75-99.299c8.25-25.2,17.75-50.1,28.65-74l16-11.55c0,0,48.2,30.551,149.05,57.45
          C2704.337,3241.916,2712.587,3312.465,2798.537,3366.215z"/>
      </g>
      <g>
        <path fill="black" d="M2875.763,3394.206c-17.891,0-32.837-0.024-43.13-0.049
          c-58.286-0.134-113.618-0.513-155.806-1.067c-66.616-0.874-76.675-1.006-82.866-6.946c-4.941-2.192-14.966-6.274-24.009-9.961
          c-120.649-49.167-145.713-65.662-141.162-92.9c0.518-3.081-0.723-11.399-1.621-17.473c-3.203-21.565-8.564-57.659,23.843-76.055
          c28.198-16.001,73.042-35.891,74.937-36.728c11.582-5.144,25.137,0.107,30.269,11.694c5.127,11.587-0.107,25.139-11.694,30.269
          c-0.444,0.195-44.663,19.812-70.859,34.677c-4.673,2.654-3.335,14.365-1.104,29.4c1.094,7.349,2.212,14.873,2.222,22.204
          c18.784,14.229,88.457,42.622,112.485,52.415c9.141,3.723,16.87,6.875,22.285,9.199c1.65,0.71,3.911,1.68,6.362,2.983
          c44.043,2.314,414.624,4.465,511.67-0.642c66.587-3.503,103.999-25.183,115.811-42.686c5.269-7.808,6.387-15.317,3.53-23.635
          c-0.02-0.054-3.052-5.693-28.555-9.156c-24.536-3.33-60.596-3.415-102.354-3.51c-62.891-0.146-141.162-0.33-230.854-10.677
          c-215.469-24.861-317.803-88.491-322.051-91.189c-10.703-6.787-13.872-20.964-7.085-31.665
          c6.777-10.691,20.938-13.865,31.621-7.112c1.333,0.827,99.346,60.906,302.778,84.375
          c87.119,10.053,163.955,10.232,225.698,10.376c99.351,0.229,159.321,0.368,174.199,43.638
          c7.495,21.812,4.341,44.619-8.887,64.224c-24.399,36.157-79.595,59.063-151.44,62.844
          C3078.317,3393.774,2951.017,3394.206,2875.763,3394.206z M2586.696,3361.767c-1.66,5.738-0.952,11.013,0.913,15.337
          C2585.583,3372.302,2585.217,3366.882,2586.696,3361.767z M2586.706,3361.735c-0.005,0.007-0.005,0.015-0.01,0.022
          C2586.701,3361.75,2586.701,3361.742,2586.706,3361.735z M2586.711,3361.703c0,0.002,0,0.005,0,0.007
          C2586.711,3361.708,2586.711,3361.706,2586.711,3361.703z M2619.118,3347.717c3.154,1.987,6.333,4.533,8.721,7.776l0.02-0.012
          C2625.231,3351.525,2621.965,3349.145,2619.118,3347.717z"/>
      </g>
      <g>
        <path fill="white" d="M2411.718,1913.711c131.3,371.15,338.05,613.45,340.8,856.4c2.25,198.7-77.5,364.9-260.95,490.2
          c0,0,178.2,58.35,185.95,102.6c8.2,46.5-68.8,47.25-68.8,47.25s-24.15,37.55-82.9,29.75c0,0-46.15,22.6-114.95,1.051
          l-87.9-14.801l-187.1,24.1h-300.35l-187.15-24.1l-87.9,14.801c-5.1,1.599-10.1,2.949-14.95,4.099
          c-60.45,14.2-99.95-5.15-99.95-5.15c-58.75,7.8-82.95-29.75-82.95-29.75s-76.95-0.75-68.8-47.25
          c7.8-44.25,185.95-102.6,185.95-102.6c-73.95-50.551-131.05-107.7-172.75-171c-61.65-93.6-89.55-200.601-88.2-319.2
          c1.3-113.3,46.95-226.4,108.6-352.45c70.55-144.399,162.15-305.8,232.25-503.95c-37.95-20.75-73.65-44.55-106.75-71.799
          c-50.5-41.4-95.05-90.751-132.8-149.15l-106.85,41.75l16.5-154.9h-98.1c75.7-213,147.55-422.3,142.8-555.801
          c-190.85-469.75-53.9-537.55,257.85-304.449c212-108.5,417.45-144.451,616.3-107.75c98.45,18.149,195.25,54.05,290.45,107.75
          c311.75-233.101,448.7-165.3,257.85,304.449c-3.8,106.1,40.8,260,97.25,425.651c14.6,42.799,29.95,86.4,45.5,130.15h-98.1
          l16.55,154.9l-106.85-41.75C2588.718,1789.512,2507.518,1861.411,2411.718,1913.711z"/>
      </g>
      <g opacity="0.25">
        <path fill="black" d="M1863.912,3176.267c81.207,54.183,162.388,54.174,243.542,0l28.413,273.994h-289.145"/>
      </g>
      <g>
        <!-- TODO: Change the color -->
        <path fill="transparent" d="M1555.935,2744.836c0,185.701-104.9,336.2-234.3,336.2c-4.8,0-9.6-0.2-14.35-0.65
          c-61.65-93.6-89.55-200.6-88.2-319.2c1.3-113.3,46.95-226.4,108.6-352.45
          C1454.285,2413.335,1555.935,2562.037,1555.935,2744.836z"/>
      </g>
      <g opacity="0.25">
        <path fill="black" d="M2490.167,3260.312c0,0,178.15,58.35,185.95,102.6c8.15,46.5-68.8,47.25-68.8,47.25
          s-24.2,37.55-82.95,29.75c0,0-39.5,19.351-99.95,5.15c-23.8-46.4-55.55-109.099-54.75-111.599
          c1.35-4.05,44.35-160.751,44.35-160.751c303.209-214.407,79.073-847.959-38.475-1124.88
          c-30.127-70.975-102.301-114.689-179.168-108.647c-140.955,11.08-281.863,11.054-422.7-0.079
          c-76.891-6.078-149.113,37.625-179.252,108.624c-117.526,276.86-341.769,910.528-38.504,1124.982c0,0,43,156.7,44.35,160.751
          c0.8,2.5-30.95,65.199-54.75,111.599c-60.45,14.2-99.95-5.15-99.95-5.15c-58.75,7.8-82.95-29.75-82.95-29.75
          s-76.95-0.75-68.8-47.25c7.8-44.25,185.95-102.6,185.95-102.6c-73.95-50.551-131.05-107.7-172.75-171
          c-61.65-93.6-89.55-200.601-88.2-319.2c1.3-113.3,46.95-226.4,108.6-352.45c70.55-144.399,162.15-305.8,232.25-503.95
          c-3.85-2.1-7.7-4.249-11.55-6.45c-1.75-1-3.55-2-5.3-3.049c-4.15-2.45-8.3-4.9-12.45-7.4c-4-2.45-8-4.95-12-7.45
          c-0.8-0.551-1.65-1.1-2.5-1.6c-3.7-2.4-7.4-4.85-11.1-7.3c-0.25-0.15-0.45-0.35-0.7-0.45c-4.3-2.95-8.6-5.9-12.85-8.9
          c-0.2-0.1-0.4-0.249-0.6-0.399c-4.15-2.95-8.3-5.951-12.4-9c-8.6-6.4-17-13-25.3-19.8c-50.5-41.4-95.05-90.751-132.8-149.15
          l-106.85,41.75l16.5-154.9c503.65,274.449,1007.6,274.149,1511.8,0l16.55,154.9l-106.85-41.75
          c-62.55,96.75-143.75,168.65-239.55,220.95c-0.45,0.05-0.9,0.15-1.35,0.2c70.05,198.051,161.6,359.399,232.15,503.75
          c61.65,126.05,107.3,239.15,108.6,352.45c1.35,118.6-26.55,225.601-88.2,319.2
          C2621.218,3152.611,2564.117,3209.761,2490.167,3260.312z"/>
      </g>
      <g opacity="0.7">
        <path fill="white" d="M2439.067,786.311c-95.2-53.7-192-89.6-290.45-107.749c-198.85-36.701-404.3-0.751-616.3,107.749
          c-198.45-148.4-326.05-174.85-343.35-53.3c-20.4-193.75,114.25-184.95,343.35-13.65c212-108.5,417.45-144.451,616.3-107.75
          c98.45,18.149,195.25,54.05,290.45,107.75c229.1-171.3,363.75-180.1,343.35,13.65
          C2765.118,611.461,2637.518,637.912,2439.067,786.311z"/>
      </g>
      <g>
        <!-- TODO: Change the color -->
        <path fill="transparent" d="M2794.167,1449.462c-77.6,40.599-166.55,63.65-261.1,63.65c-302.35,0-547.4-235.8-547.4-526.6
          c0-146.699,62.35-279.399,162.95-374.9c98.45,18.149,195.25,54.05,290.45,107.75c311.75-233.101,448.7-165.3,257.85,304.449
          C2693.117,1129.911,2737.717,1283.811,2794.167,1449.462z"/>
      </g>
      <g>
        <path fill="black" d="M2135.866,3473.207h-300.347c-0.981,0-1.958-0.063-2.93-0.188l-183.774-23.665l-83.027,13.979
          c-60.957,18.643-106.709,6.189-123.452,0.022c-48.55,4.389-77.676-17.346-90.762-30.808c-17.974-1.563-51.06-7.429-69.17-29.199
          c-10.249-12.327-14.121-27.681-11.191-44.399c3.267-18.511,18.628-44.868,109.228-84.917
          c17.949-7.937,35.64-14.993,50.65-20.686c-158.369-121.958-237.471-284.417-235.22-483.493
          c1.719-149.097,76.807-296.633,163.755-467.463c56.348-110.718,119.917-235.613,171.899-378.201
          c-89.214-51.846-163.174-120.125-220.259-203.333l-89.648,35.027c-7.456,2.925-15.908,1.726-22.275-3.137
          s-9.741-12.698-8.892-20.664l13.799-129.526h-72.583c-7.456,0-14.448-3.621-18.745-9.712
          c-4.302-6.091-5.371-13.892-2.876-20.916c79.209-222.883,144.565-417.759,141.611-543.318
          c-99.199-245.276-114.238-390.154-45.981-442.837c59.399-45.852,170.034-9.951,328.926,106.724
          c313.403-156.309,616.968-156.428,902.686-0.369c158.618-116.375,269.082-152.158,328.423-106.355
          c68.257,52.683,53.218,197.566-45.981,442.842c-2.988,125.344,62.358,320.32,141.563,543.315
          c2.495,7.026,1.421,14.824-2.876,20.916c-4.302,6.089-11.289,9.709-18.745,9.709h-72.573l13.838,129.519
          c0.85,7.969-2.52,15.806-8.887,20.671c-6.362,4.863-14.814,6.062-22.28,3.137l-89.648-35.027
          c-57.085,83.208-131.045,151.487-220.259,203.333c51.978,142.564,115.527,267.439,171.865,378.142
          c86.953,170.854,162.046,318.411,163.735,467.522c2.256,199.106-76.831,361.56-235.205,483.493
          c15.01,5.694,32.7,12.749,50.659,20.684c90.625,40.056,105.962,66.426,109.204,84.924c2.944,16.69-0.913,32.046-11.157,44.378
          c-18.096,21.782-51.206,27.651-69.189,29.216c-13.081,13.467-42.148,35.205-90.728,30.808
          c-16.743,6.16-62.534,18.625-123.501-0.022l-83.027-13.979l-183.721,23.665
          C2137.824,3473.144,2136.847,3473.207,2135.866,3473.207z M1445.568,3416.967c3.486,0,6.943,0.794,10.103,2.341
          c1.411,0.654,39.678,18.006,97.935-0.244c1.001-0.313,2.017-0.557,3.052-0.73l87.9-14.8c2.231-0.376,4.502-0.417,6.738-0.132
          l185.693,23.911h297.407l185.64-23.909c2.236-0.29,4.512-0.247,6.738,0.129l87.9,14.8c1.03,0.174,2.051,0.418,3.052,0.73
          c58.286,18.261,96.587,0.896,98.188,0.149c3.965-1.848,8.555-2.617,12.925-2.048c42.559,5.637,60.073-18.708,60.796-19.746
          c4.18-6.499,11.133-10.127,18.857-10.203c14.502-0.212,38.325-4.927,45.186-13.228c0.815-0.989,2.056-2.485,1.24-7.09
          c-6.177-17.278-85.889-57.08-170.488-84.78c-8.306-2.72-14.346-9.922-15.576-18.572c-1.235-8.652,2.559-17.253,9.775-22.182
          c171.123-116.885,253.208-270.948,250.942-470.994c-1.567-138.379-74.404-281.501-158.745-447.227
          c-59.355-116.624-126.626-248.811-180.742-401.78c-3.76-10.62,0.747-22.397,10.635-27.793
          c97.129-53.025,172.783-122.786,231.279-213.269c5.913-9.155,17.476-12.878,27.617-8.914l71.675,28.005l-12.539-117.346
          c-0.688-6.472,1.401-12.935,5.752-17.776s10.557-7.605,17.065-7.605h65.63c-76.66-217.095-137.793-406.362-133.213-533.682
          c0.098-2.681,0.659-5.325,1.67-7.813c123.091-302.964,84.37-375.813,62.012-393.071
          c-19.253-14.871-85.576-33.372-284.858,115.637c-7.285,5.447-17.1,6.077-25.01,1.609
          c-279.136-157.424-576.899-157.273-885.029,0.44c-7.798,3.992-17.182,3.198-24.194-2.048
          c-199.277-149.004-265.586-130.503-284.863-115.637c-22.358,17.258-61.074,90.107,62.017,393.071
          c1.011,2.49,1.577,5.137,1.67,7.822c4.536,127.527-56.592,316.702-133.257,533.672h65.625c6.509,0,12.71,2.764,17.061,7.603
          c4.355,4.841,6.445,11.301,5.757,17.771l-12.5,117.358l71.685-28.01c10.142-3.965,21.694-0.242,27.617,8.914
          c58.496,90.483,134.15,160.244,231.279,213.269c9.888,5.396,14.395,17.173,10.635,27.793
          c-54.126,152.996-121.411,285.2-180.776,401.841c-84.336,165.701-157.168,308.806-158.765,447.17
          c-2.261,200.012,79.824,354.075,250.952,470.991c7.212,4.929,11.001,13.528,9.771,22.178s-7.266,15.852-15.571,18.572
          c-84.614,27.737-164.336,67.546-170.596,85.195c-0.708,4.177,0.537,5.679,1.357,6.672c6.87,8.303,30.679,13.02,45.225,13.233
          c7.681,0.112,14.849,4.06,19.009,10.515c0.508,0.713,18.057,25.105,60.645,19.434
          C1443.552,3417.033,1444.562,3416.967,1445.568,3416.967z"/>
      </g>
      <g>
        <path fill="black" d="M1352.734,3395.733l53.953-27.905c10.472-5.368,20.034,8.766,11.311,16.494
          c0,0-45.469,40.276-45.469,40.276C1352.087,3441.003,1330.051,3408.912,1352.734,3395.733L1352.734,3395.733z"/>
      </g>
      <g>
        <path fill="black" d="M1439.898,3417.252l46.243-38.12c9.095-7.443,21.412,4.322,14.553,13.72l-35.328,48.408
          C1448.87,3461.691,1420.466,3434.946,1439.898,3417.252L1439.898,3417.252z"/>
      </g>
      <g>
        <path fill="black" d="M2598.838,3424.597l-45.469-40.276c-8.78-7.836,0.961-21.847,11.312-16.494l53.952,27.905
          C2641.285,3408.986,2619.386,3440.96,2598.838,3424.597L2598.838,3424.597z"/>
      </g>
      <g>
        <path fill="black" d="M2506.002,3441.26l-35.328-48.408c-6.893-9.517,5.575-21.122,14.553-13.719
          c0,0,46.242,38.12,46.242,38.12C2550.892,3434.925,2522.519,3461.701,2506.002,3441.26L2506.002,3441.26z"/>
      </g>
      <g>
        <path fill="white" d="M1519.946,2918.14c8.823,152.316,40.148,298.719,88.76,440.579c0,0-79.463,71.901-72.397,110.579
          c7.066,38.677,60.992,22.314,60.992,22.314s0.744,49.091,41.653,49.835c29.724,0.541,45.312-13.841,51.614-21.745
          c1.814-2.276,5.198-2.308,7.085-0.092c8.128,9.543,30.478,28.972,73.698,21.852c56.529-9.313,71.405-127.205,71.405-127.205
          s30.496-322.066,37.19-460.413"/>
      </g>
      <g>
        <path fill="black" d="M1532.425,2917.417c19.187,147.699,50.94,292.771,97.565,434.007
          c2.976,8.773,0.262,18.122-6.188,23.979c-22.184,20.971-47.281,47.328-60.827,73.916c-3.251,7.308-5.329,12.514-4.273,16.581
          c0.136,0.385,0.241,0.774,0.317,1.176c0.04,0.288,0.068,0.73,0.335,0.924c0.353,0.304,0.256,1.084,0.651,1.107
          c0.87,1.321,1.968,1.499,4.369,2.452c8.251,1.962,18.181,0.644,26.393-1.478c14.656-4.02,29.212,7.705,29.158,22.729
          c0.591,8.188,4.431,20.355,11.031,24.132c3.435,3.193,20.821,2.573,29.856-1.986c5.002-2.318,9.326-5.633,12.696-9.919
          c9.189-11.484,28.105-12.773,38.803-2.554c3.553,3.601,6.728,7.374,11.205,10.03c10.693,7.155,26.642,9.377,41.282,7.118
          c23.377-2.822,34.826-33.324,42.703-54.647c5.669-16.839,9.865-34.965,12.361-52.827c1.043-11.349,2.82-32.877,3.834-44.401
          c6-69.239,12.923-138.398,20.365-207.498c7.336-69.121,15.549-138.213,23.41-207.119c0.784-6.87,6.989-11.804,13.859-11.021
          c6.356,0.725,11.053,6.091,11.101,12.33c0.645,104.991-5.539,209.107-13.364,313.519c-3.116,43.066-7.339,87.001-11.582,130.035
          c-2.169,27.871-8.001,55.073-17.104,81.681c-11.43,32.86-32.197,73.852-71.028,83.029c-33.679,7.713-74.709,0.016-98.803-28.483
          c6.932,8.808,21.753,7.562,27.369-0.207c-23.013,28.195-67.13,38.896-99.433,21.908c-23.51-14.335-32.231-38.834-33.681-63.977
          c0,0,29.03,21.189,29.03,21.189c-30.903,9.445-73.53,5.421-86.692-29.221c-16.736-44.174,29.748-93.067,56.65-122.438
          c6.427-6.652,12.653-12.858,19.817-19.448l-6.188,23.977c-24.74-71.909-46.821-145.077-60.047-220.103
          c-13.403-74.969-20.866-151.089-19.908-227.047C1507.89,2903.814,1530.087,2901.842,1532.425,2917.417L1532.425,2917.417z"/>
      </g>
      <g>
        <path fill="white" d="M2451.422,2918.14c-8.823,152.316-40.148,298.719-88.76,440.579
          c0,0,79.463,71.901,72.396,110.579c-7.066,38.677-60.992,22.314-60.992,22.314s-0.744,49.091-41.653,49.835
          c-29.724,0.541-45.312-13.841-51.614-21.745c-1.814-2.276-5.198-2.308-7.085-0.092c-8.128,9.543-30.478,28.972-73.698,21.852
          c-56.529-9.313-71.405-127.205-71.405-127.205s-30.496-322.066-37.19-460.413"/>
      </g>
      <g>
        <path fill="black" d="M2463.901,2918.863c2.038,152.318-28.903,303.975-79.955,447.149
          c0.001,0-6.187-23.977-6.187-23.977c7.164,6.589,13.391,12.795,19.817,19.448c32.295,34.531,91.051,99.57,40.934,143.675
          c-20.899,15.924-47.298,14.132-70.975,7.985c0,0,29.03-21.189,29.03-21.189l-0.127,2.742
          c-1.871,27.144-15.007,55.568-43.232,65.676c-31.21,9.631-68.818-0.474-89.755-26.349c5.826,8.024,20.793,8.664,27.215,0.377
          c-24.128,28.377-65.027,35.99-98.65,28.311c-38.835-9.183-59.588-50.165-71.028-83.028c-9.1-26.601-14.95-53.818-17.104-81.681
          c-7.911-77.876-14.115-156.137-18.646-234.271c-3.918-69.576-6.913-139.213-6.3-209.283c0.061-6.914,5.715-12.471,12.629-12.411
          c6.396,0.056,11.631,4.9,12.331,11.1c11.895,103.387,24.029,207.13,34.1,310.817c4.834,47.203,8.929,95.417,13.02,142.742
          c0.196,2.826,0.85,8.481,1.349,11.277c5.384,30.699,21.353,103.263,59.412,102.226c19.616,1.618,35.593-3.861,47.279-17.717
          c10.703-10.23,29.611-8.916,38.804,2.556c3.371,4.284,7.693,7.601,12.696,9.919c9.035,4.559,26.421,5.179,29.856,1.986
          c7.242-4.308,10.822-17.466,11.209-26.305c1.028-14.218,15.242-24.251,28.979-20.555c9.128,2.086,21.744,4.587,30.038-0.253
          c0.115-0.145,0.398-0.145,0.483-0.3c0.042-0.184,0.117-0.319,0.241-0.421c0.396-0.023,0.299-0.803,0.652-1.107
          c0.067-0.11,0.177-0.167,0.243-0.31l0.093-0.614c0.198-1.053,0.71-1.867,0.611-2.815c0.189-2.561-1.557-8.873-4.567-14.941
          c-13.555-26.596-38.639-52.935-60.826-73.916c-6.843-6.223-8.978-15.744-6.189-23.979
          c23.985-70.248,42.108-142.202,58.906-214.43c16.648-72.267,29.008-145.502,38.659-219.576
          C2440.985,2902.589,2463.347,2903.027,2463.901,2918.863L2463.901,2918.863z"/>
      </g>
      <g>
        <path fill="black" d="M2087.392,1387.918c-12.649,18.4-40.3,40.95-100.9,48.8c-0.25,0-0.5,0.05-0.799,0.1
          c-0.3-0.05-0.601-0.05-0.851-0.1c-60.599-7.85-88.25-30.4-100.9-48.8c-10.3-15.1-5.25-35.35,11-43.75
          c32.2-16.6,80.4-17,89.9-16.9c0,0,0.601,0,1.65,0c9.5-0.1,57.75,0.3,89.9,16.9
          C2092.643,1352.569,2097.693,1372.818,2087.392,1387.918z"/>
      </g>
      <g opacity="0.6">
        <g>
          <ellipse fill="white" cx="1985.028" cy="1356.6" rx="41.808" ry="11.17"/>
        </g>
      </g>
      <g>
        <path fill="black" d="M1974.088,1507.956c-8.637-29.329-11.92-60.177-9.061-90.558
          c3.352-23.259,36.771-23.012,40.001,0c1.882,15.089,1.024,30.189-0.307,45.279c-1.708,15.323-3.917,30.411-8.752,45.278
          c-2.008,6.042-8.533,9.313-14.576,7.305C1977.828,1514.076,1975.208,1511.259,1974.088,1507.956L1974.088,1507.956z"/>
      </g>
      <g>
        <ellipse transform="matrix(0.7071 -0.7071 0.7071 0.7071 -402.9551 1525.2795)" fill="white" cx="1639.698" cy="1249.05" rx="187.769" ry="187.769"/>
      </g>
      <g>
        <path fill="black" d="M1639.699,1454.318c-113.184,0-205.269-92.083-205.269-205.268
          c0-113.186,92.085-205.269,205.269-205.269c113.183,0,205.269,92.083,205.269,205.269
          C1844.968,1362.235,1752.882,1454.318,1639.699,1454.318z M1639.699,1078.781c-93.887,0-170.269,76.382-170.269,170.269
          c0,93.887,76.382,170.268,170.269,170.268s170.269-76.382,170.269-170.268
          C1809.968,1155.163,1733.586,1078.781,1639.699,1078.781z"/>
      </g>
      <g>
        <ellipse fill="black" cx="1712.59" cy="1262.81" rx="41.281" ry="44.628"/>
      </g>
      <g>
        <ellipse transform="matrix(0.7071 -0.7071 0.7071 0.7071 -206.1146 2000.4945)" fill="white" cx="2311.753" cy="1249.05" rx="187.769" ry="187.769"/>
      </g>
      <g>
        <path fill="black" d="M2311.755,1454.318c-113.184,0-205.269-92.083-205.269-205.268
          c0-113.186,92.085-205.269,205.269-205.269s205.269,92.083,205.269,205.269
          C2517.023,1362.235,2424.938,1454.318,2311.755,1454.318z M2311.755,1078.781c-93.887,0-170.269,76.382-170.269,170.269
          c0,93.887,76.382,170.268,170.269,170.268s170.269-76.382,170.269-170.268
          C2482.023,1155.163,2405.641,1078.781,2311.755,1078.781z"/>
      </g>
      <g>
        <ellipse fill="black" cx="2238.861" cy="1262.81" rx="41.281" ry="44.628"/>
      </g>
      <g>
        <path fill="black" d="M1347.952,1463.505c-66.353-24.994-133.24-46.02-202.762-58.751
          c-69.596-13.625-139.567-18.391-210.555-22.514c-8.76-0.487-9.661-13.461-0.866-14.976
          c143.59-23.145,298.012,3.808,421.228,82.369C1362.615,1454.679,1356.66,1466.764,1347.952,1463.505L1347.952,1463.505z"/>
      </g>
      <g>
        <path fill="black" d="M1351.032,1615.698c-77.867,10.8-153.079,38.215-224.102,71.383
          c-18.898,9.003-39.576,19.371-58.277,29.036c-13.063,6.754-25.832,14.129-39.396,20.471c-7.663,3.62-14.644-6.649-8.301-12.4
          c74.991-68.575,171.864-115.153,273.455-125.136c19.18-1.325,37.956-1.976,57.506,1.116c4.256,0.682,7.152,4.686,6.469,8.942
          C1357.788,1612.867,1354.637,1615.465,1351.032,1615.698L1351.032,1615.698z"/>
      </g>
      <g>
        <path fill="black" d="M2627.509,1449.635c123.219-78.563,277.634-105.515,421.228-82.372
          c8.66,1.536,8.041,14.471-0.867,14.977c-70.983,4.123-140.961,8.889-210.554,22.514
          c-69.525,12.732-136.406,33.756-202.762,58.751C2626.033,1466.724,2619.725,1454.721,2627.509,1449.635L2627.509,1449.635z"/>
      </g>
      <g>
        <path fill="black" d="M2630.588,1600.169c115.005-13.6,247.768,46.956,330.961,124.019
          c6.283,5.637-0.657,16.124-8.293,12.407c-13.564-6.348-26.338-13.719-39.404-20.477
          c-63.618-33.231-129.521-63.011-198.699-82.577c-27.135-7.655-55.933-14.204-83.68-17.842
          C2622.282,1615.18,2621.396,1601.681,2630.588,1600.169L2630.588,1600.169z"/>
      </g>
    </g>
  </g>
</svg>