<svg xmlns="http://www.w3.org/2000/svg" viewBox="0 0 20 20" width="20" height="20">
  <path
    d="m16,12c-1.39,0 -2.61,0.71 -3.32,1.78l-5.04,-2.14c0.23,-0.5 0.36,-1.05 0.36,-1.64s-0.12,-1.11 -0.34,-1.61l5.04,-2.14c0.72,1.05 1.93,1.75 3.3,1.75 2.21,0 4,-1.79 4,-4s-1.79,-4 -4,-4 -4,1.79 -4,4c0,0.12 0.03,0.24 0.04,0.36l-5.5,2.34c-0.06,0.03 -0.1,0.07 -0.15,0.1 -0.67,-0.5 -1.49,-0.8 -2.38,-0.8C1.79,6 0,7.79 0,10s1.79,4 4,4c0.88,0 1.68,-0.29 2.34,-0.77 0.04,0.02 0.06,0.05 0.1,0.07l5.59,2.37c0,0.11 -0.03,0.21 -0.03,0.32 0,2.21 1.79,4 4,4s4,-1.79 4,-4 -1.79,-4 -4,-4ZM16,2c1.1,0 2,0.9 2,2s-0.9,2 -2,2 -2,-0.9 -2,-2 0.9,-2 2,-2ZM4,12c-1.1,0 -2,-0.9 -2,-2s0.9,-2 2,-2 2,0.9 2,2 -0.9,2 -2,2ZM16,18c-1.1,0 -2,-0.9 -2,-2s0.9,-2 2,-2 2,0.9 2,2 -0.9,2 -2,2Z"
  />
</svg>